<svg width="19" height="18" viewBox="0 0 19 18" fill="none" xmlns="http://www.w3.org/2000/svg">
<path d="M0.351468 15.9961C-0.117156 16.4545 -0.117156 17.1977 0.351468 17.6562C0.820092 18.1146 1.5799 18.1146 2.04852 17.6562L0.351468 15.9961ZM10.0485 9.83005C10.5171 9.3716 10.5171 8.62843 10.0485 8.16998C9.57984 7.71153 8.82016 7.71153 8.35152 8.16998L10.0485 9.83005ZM8.35152 8.16998C7.88288 8.62843 7.88288 9.3716 8.35152 9.83005C8.82016 10.2885 9.57984 10.2885 10.0485 9.83005L8.35152 8.16998ZM18.0485 2.004C18.5171 1.54556 18.5171 0.802266 18.0485 0.343828C17.5798 -0.114609 16.8202 -0.114609 16.3515 0.343828L18.0485 2.004ZM10.0485 8.16998C9.57984 7.71153 8.82016 7.71153 8.35152 8.16998C7.88288 8.62843 7.88288 9.3716 8.35152 9.83005L10.0485 8.16998ZM16.3515 17.6562C16.8202 18.1146 17.5798 18.1146 18.0485 17.6562C18.5171 17.1977 18.5171 16.4545 18.0485 15.9961L16.3515 17.6562ZM8.35152 9.83005C8.82016 10.2885 9.57984 10.2885 10.0485 9.83005C10.5171 9.3716 10.5171 8.62843 10.0485 8.16998L8.35152 9.83005ZM2.04852 0.343828C1.5799 -0.114609 0.820092 -0.114609 0.351468 0.343828C-0.117156 0.802266 -0.117156 1.54556 0.351468 2.004L2.04852 0.343828ZM2.04852 17.6562L10.0485 9.83005L8.35152 8.16998L0.351468 15.9961L2.04852 17.6562ZM10.0485 9.83005L18.0485 2.004L16.3515 0.343828L8.35152 8.16998L10.0485 9.83005ZM8.35152 9.83005L16.3515 17.6562L18.0485 15.9961L10.0485 8.16998L8.35152 9.83005ZM10.0485 8.16998L2.04852 0.343828L0.351468 2.004L8.35152 9.83005L10.0485 8.16998Z" fill="#616161"/>
</svg>
