<svg width="24" height="32" viewBox="0 0 24 32" fill="none" xmlns="http://www.w3.org/2000/svg">
<path d="M22.25 11.2413L21.75 26.375C21.7074 27.6711 21.1614 28.8996 20.2279 29.7998C19.2944 30.6999 18.0468 31.2009 16.75 31.1963H7.25003C5.95406 31.2009 4.70723 30.7007 3.77384 29.8016C2.84045 28.9025 2.2939 27.6752 2.25003 26.38L1.75003 11.2413C1.73909 10.9097 1.8603 10.5874 2.08698 10.3453C2.31367 10.1031 2.62726 9.96095 2.95878 9.95001C3.2903 9.93907 3.61259 10.0603 3.85475 10.287C4.09691 10.5136 4.23909 10.8272 4.25003 11.1588L4.75003 26.2963C4.77493 26.9425 5.04927 27.5539 5.51544 28.0021C5.98161 28.4503 6.60334 28.7005 7.25003 28.7H16.75C17.3976 28.7004 18.02 28.4496 18.4863 28.0003C18.9526 27.551 19.2264 26.9384 19.25 26.2913L19.75 11.1588C19.761 10.8272 19.9032 10.5136 20.1453 10.287C20.3875 10.0603 20.7098 9.93907 21.0413 9.95001C21.3728 9.96095 21.6864 10.1031 21.9131 10.3453C22.1398 10.5874 22.261 10.9097 22.25 11.2413ZM23.9038 6.20501C23.9038 6.53653 23.7721 6.85447 23.5377 7.08889C23.3032 7.32331 22.9853 7.45501 22.6538 7.45501H1.34753C1.01601 7.45501 0.698071 7.32331 0.46365 7.08889C0.22923 6.85447 0.0975342 6.53653 0.0975342 6.20501C0.0975342 5.87349 0.22923 5.55555 0.46365 5.32113C0.698071 5.08671 1.01601 4.95501 1.34753 4.95501H5.22253C5.61859 4.95608 6.00088 4.80975 6.29501 4.5445C6.58913 4.27926 6.77405 3.91407 6.81378 3.52001C6.90603 2.59562 7.33911 1.73867 8.02865 1.11614C8.7182 0.493614 9.6148 0.150092 10.5438 0.152509H13.4563C14.3853 0.150092 15.2819 0.493614 15.9714 1.11614C16.661 1.73867 17.094 2.59562 17.1863 3.52001C17.226 3.91407 17.4109 4.27926 17.7051 4.5445C17.9992 4.80975 18.3815 4.95608 18.7775 4.95501H22.6525C22.9841 4.95501 23.302 5.08671 23.5364 5.32113C23.7708 5.55555 23.9025 5.87349 23.9025 6.20501H23.9038ZM8.98378 4.95501H15.0188C14.8545 4.57969 14.7471 4.18199 14.7 3.77501C14.6691 3.46689 14.5248 3.18124 14.2953 2.9734C14.0657 2.76555 13.7672 2.65031 13.4575 2.65001H10.545C10.2354 2.65031 9.93684 2.76555 9.70729 2.9734C9.47773 3.18124 9.3335 3.46689 9.30253 3.77501C9.25507 4.18205 9.14847 4.57975 8.98378 4.95501ZM10.2425 23.8938V13.25C10.2425 12.9185 10.1108 12.6005 9.87642 12.3661C9.642 12.1317 9.32405 12 8.99253 12C8.66101 12 8.34307 12.1317 8.10865 12.3661C7.87423 12.6005 7.74253 12.9185 7.74253 13.25V23.8988C7.74253 24.2303 7.87423 24.5482 8.10865 24.7826C8.34307 25.0171 8.66101 25.1488 8.99253 25.1488C9.32405 25.1488 9.642 25.0171 9.87642 24.7826C10.1108 24.5482 10.2425 24.2303 10.2425 23.8988V23.8938ZM16.26 23.8938V13.25C16.26 12.9185 16.1283 12.6005 15.8939 12.3661C15.6595 12.1317 15.3416 12 15.01 12C14.6785 12 14.3606 12.1317 14.1262 12.3661C13.8917 12.6005 13.76 12.9185 13.76 13.25V23.8988C13.76 24.2303 13.8917 24.5482 14.1262 24.7826C14.3606 25.0171 14.6785 25.1488 15.01 25.1488C15.3416 25.1488 15.6595 25.0171 15.8939 24.7826C16.1283 24.5482 16.26 24.2303 16.26 23.8988V23.8938Z" fill="#B90707"/>
</svg>
