<svg width="51" height="51" viewBox="0 0 51 51" fill="none" xmlns="http://www.w3.org/2000/svg">
<g clip-path="url(#clip0_21_522)">
<path d="M25.5 13.1484C26.3189 13.1476 27.104 12.8219 27.6831 12.2428C28.2622 11.6638 28.5878 10.8787 28.5887 10.0597V3.88556C28.5878 3.06665 28.2622 2.28152 27.6831 1.70246C27.104 1.1234 26.3189 0.797719 25.5 0.796875C24.6811 0.797719 23.896 1.1234 23.3169 1.70246C22.7378 2.28152 22.4122 3.06665 22.4113 3.88556V10.0597C22.4122 10.8787 22.7378 11.6638 23.3169 12.2428C23.896 12.8219 24.6811 13.1476 25.5 13.1484ZM10.0597 22.4129H3.88556C3.06693 22.4137 2.28204 22.7392 1.70302 23.3179C1.12401 23.8966 0.79814 24.6814 0.796875 25.5C0.797719 26.3189 1.1234 27.104 1.70246 27.6831C2.28152 28.2622 3.06665 28.5878 3.88556 28.5887H10.0597C10.8787 28.5878 11.6638 28.2622 12.2428 27.6831C12.8219 27.104 13.1476 26.3189 13.1484 25.5C13.1476 24.6811 12.8219 23.896 12.2428 23.3169C11.6638 22.7378 10.8787 22.4138 10.0597 22.4129ZM8.0325 42.9675C8.61581 43.5508 9.39038 43.8727 10.2159 43.8727C11.0399 43.8727 11.8161 43.5508 12.3994 42.9675L16.7663 38.6006C17.9695 37.3973 17.9695 35.437 16.7663 34.2337C15.563 33.0305 13.6027 33.0305 12.3994 34.2337L8.0325 38.6006C7.4544 39.1802 7.12976 39.9654 7.12976 40.7841C7.12976 41.6027 7.4544 42.3879 8.0325 42.9675ZM22.4129 47.1144C22.4137 47.9331 22.7392 48.718 23.3179 49.297C23.8966 49.876 24.6814 50.2019 25.5 50.2031C26.3189 50.2023 27.104 49.8766 27.6831 49.2975C28.2622 48.7185 28.5878 47.9333 28.5887 47.1144V40.9387C28.5874 40.12 28.2616 39.3353 27.6825 38.7566C27.1035 38.1779 26.3186 37.8524 25.5 37.8516C24.6811 37.8524 23.896 38.1781 23.3169 38.7572C22.7378 39.3362 22.4122 40.1213 22.4113 40.9403V47.116L22.4129 47.1144ZM34.2337 38.6006L38.6006 42.9675C39.1839 43.5508 39.9601 43.8727 40.7841 43.8727C41.3938 43.8707 41.9893 43.6884 42.4957 43.3488C43.002 43.0093 43.3967 42.5275 43.6301 41.9642C43.8634 41.401 43.925 40.7812 43.8072 40.183C43.6893 39.5848 43.3971 39.0348 42.9675 38.6022L38.6006 34.2353C37.3973 33.0305 35.437 33.0305 34.2337 34.2353C33.0305 35.4402 33.0321 37.3973 34.2337 38.6022V38.6006ZM47.1144 22.4129H40.9387C40.1203 22.4142 39.3358 22.7398 38.7571 23.3185C38.1785 23.8972 37.8528 24.6816 37.8516 25.5C37.8524 26.3189 38.1781 27.104 38.7572 27.6831C39.3362 28.2622 40.1213 28.5878 40.9403 28.5887H47.116C47.9347 28.5874 48.7194 28.2616 49.2981 27.6825C49.8768 27.1035 50.2023 26.3186 50.2031 25.5C50.2023 24.6811 49.8766 23.896 49.2975 23.3169C48.7185 22.7378 47.9333 22.4138 47.1144 22.4129ZM36.4172 17.6699C37.2427 17.6699 38.0173 17.3496 38.6006 16.7663L42.9675 12.3994C44.1708 11.1961 44.1708 9.23578 42.9675 8.0325C41.7642 6.82922 39.8039 6.82922 38.6006 8.0325L34.2337 12.3994C33.6557 12.979 33.331 13.7642 33.331 14.5828C33.331 15.4014 33.6557 16.1866 34.2337 16.7663C34.8187 17.3496 35.5932 17.6699 36.4172 17.6699Z" fill="#B01B1B"/>
</g>
<defs>
<clipPath id="clip0_21_522">
<rect width="51" height="51" fill="white"/>
</clipPath>
</defs>
</svg>
